<mxfile host="app.diagrams.net" modified="2021-11-07T16:21:17.023Z" agent="5.0 (Windows NT 10.0; Win64; x64) AppleWebKit/537.36 (KHTML, like Gecko) Chrome/95.0.4638.69 Safari/537.36" etag="eB16dkTQBTh8GSrZNeCI" version="15.7.0" type="github">
  <diagram name="Page-1" id="3e8102d1-ef87-2e61-34e1-82d9a586fe2e">
    <mxGraphModel dx="730" dy="611" grid="1" gridSize="10" guides="1" tooltips="1" connect="1" arrows="1" fold="1" page="1" pageScale="1" pageWidth="1100" pageHeight="850" background="none" math="0" shadow="0">
      <root>
        <mxCell id="0" />
        <mxCell id="1" parent="0" />
        <mxCell id="70666756c84bb93c-1" value="" style="ellipse;whiteSpace=wrap;html=1;rounded=0;shadow=0;comic=0;strokeWidth=1;fontFamily=Verdana;fontSize=14;strokeColor=none;fillColor=#006600;fontStyle=1" parent="1" vertex="1">
          <mxGeometry x="280" y="110" width="500" height="500" as="geometry" />
        </mxCell>
        <mxCell id="70666756c84bb93c-2" value="Identidad&lt;br&gt;Cultural" style="ellipse;whiteSpace=wrap;html=1;rounded=0;shadow=0;comic=0;strokeWidth=1;fontFamily=Verdana;fontSize=22;strokeColor=none;fillColor=#FFFFFF;fontColor=#006600;fontStyle=1" parent="1" vertex="1">
          <mxGeometry x="400" y="230" width="260" height="260" as="geometry" />
        </mxCell>
        <mxCell id="70666756c84bb93c-5" value="Normas" style="shadow=0;dashed=0;html=1;strokeColor=default;fillColor=#ffffff;labelPosition=center;verticalLabelPosition=bottom;verticalAlign=top;shape=mxgraph.office.users.users;rounded=0;comic=0;fontFamily=Verdana;fontSize=14;fontColor=#FFFFFF;fontStyle=1" parent="1" vertex="1">
          <mxGeometry x="370" y="468" width="46" height="50" as="geometry" />
        </mxCell>
        <mxCell id="70666756c84bb93c-11" value="Patrimonio&lt;br&gt;Cultural" style="shape=mxgraph.signs.travel.museum;html=1;pointerEvents=1;fillColor=#ffffff;strokeColor=default;verticalLabelPosition=bottom;verticalAlign=top;align=center;sketch=0;shadow=0;dashed=0;fontFamily=Verdana;fontSize=14;fontColor=#FFFFFF;comic=0;fontStyle=1" parent="1" vertex="1">
          <mxGeometry x="352" y="194" width="48" height="45" as="geometry" />
        </mxCell>
        <mxCell id="70666756c84bb93c-12" value="Territorio" style="shadow=0;dashed=0;html=1;strokeColor=default;fillColor=#ffffff;labelPosition=center;verticalLabelPosition=bottom;verticalAlign=top;shape=mxgraph.office.concepts.globe_internet;rounded=0;comic=0;fontFamily=Verdana;fontSize=14;fontColor=#FFFFFF;fontStyle=1" parent="1" vertex="1">
          <mxGeometry x="501" y="140" width="49" height="49" as="geometry" />
        </mxCell>
        <mxCell id="70666756c84bb93c-13" value="Historia" style="shadow=0;dashed=0;html=1;strokeColor=default;shape=mxgraph.mscae.general.continuous_cycle;fillColor=#ffffff;rounded=0;comic=0;fontFamily=Verdana;fontSize=14;fontColor=#FFFFFF;verticalAlign=top;labelPosition=center;verticalLabelPosition=bottom;align=center;labelBackgroundColor=none;" parent="1" vertex="1">
          <mxGeometry x="640" y="189" width="60" height="61" as="geometry" />
        </mxCell>
        <mxCell id="hbTPjuYIqT94KeS6R7Wr-3" value="Objetos &lt;br&gt;tecnológicos &lt;br&gt;y tecnología" style="shape=mxgraph.signs.tech.camera_1;html=1;pointerEvents=1;verticalLabelPosition=bottom;verticalAlign=top;align=center;sketch=0;fontColor=#FFFFFF;fontFamily=Verdana;fontStyle=1" vertex="1" parent="1">
          <mxGeometry x="320" y="340" width="42" height="40" as="geometry" />
        </mxCell>
        <mxCell id="hbTPjuYIqT94KeS6R7Wr-4" value="Simbolos" style="shape=mxgraph.signs.tech.at_1;html=1;pointerEvents=1;verticalLabelPosition=bottom;verticalAlign=top;align=center;sketch=0;fontColor=#FFFFFF;fontStyle=1;fontFamily=Verdana;" vertex="1" parent="1">
          <mxGeometry x="650" y="450" width="50" height="50" as="geometry" />
        </mxCell>
        <mxCell id="hbTPjuYIqT94KeS6R7Wr-5" value="Valores y creencias" style="shape=mxgraph.signs.healthcare.chapel;html=1;pointerEvents=1;fillColor=rgba(255, 255, 255, 1);strokeColor=rgba(0, 0, 0, 1);verticalLabelPosition=bottom;verticalAlign=top;align=center;sketch=0;fontFamily=Verdana;fontSize=12;fontColor=#FFFFFF;fontStyle=1" vertex="1" parent="1">
          <mxGeometry x="510" y="510" width="50" height="50" as="geometry" />
        </mxCell>
        <mxCell id="hbTPjuYIqT94KeS6R7Wr-8" value="Lenguas y&lt;br&gt;Lenguajes" style="shape=mxgraph.signs.healthcare.sign_language;html=1;pointerEvents=1;verticalLabelPosition=bottom;verticalAlign=top;align=center;sketch=0;labelBackgroundColor=none;fontFamily=Verdana;fontStyle=1;fontColor=#FFFFFF;" vertex="1" parent="1">
          <mxGeometry x="680" y="328" width="71" height="52" as="geometry" />
        </mxCell>
      </root>
    </mxGraphModel>
  </diagram>
</mxfile>
